<svg width="50" height="35" viewBox="0 0 50 35" fill="none" xmlns="http://www.w3.org/2000/svg">
<path d="M16.6667 0H8.33334C6.1232 0 4.00358 0.867644 2.44078 2.41206C0.877975 3.95648 0 6.05116 0 8.23529V16.4706C0 17.5627 0.438987 18.61 1.22039 19.3822C2.00179 20.1544 3.0616 20.5882 4.16667 20.5882H16.4792C15.9849 23.4635 14.4781 26.0735 12.2251 27.9572C9.97206 29.8409 7.11782 30.8769 4.16667 30.8824C3.61414 30.8824 3.08423 31.0993 2.69353 31.4854C2.30283 31.8715 2.08334 32.3951 2.08334 32.9412C2.08334 33.4872 2.30283 34.0109 2.69353 34.397C3.08423 34.7831 3.61414 35 4.16667 35C8.58543 34.9951 12.8218 33.2582 15.9463 30.1705C19.0709 27.0827 20.8284 22.8962 20.8334 18.5294V4.11765C20.8334 3.02558 20.3944 1.97824 19.613 1.20603C18.8316 0.433822 17.7718 0 16.6667 0Z" fill="#FFF2F6"/>
<path d="M45.8333 0H37.5C35.2899 0 33.1703 0.867644 31.6075 2.41206C30.0447 3.95648 29.1667 6.05116 29.1667 8.23529V16.4706C29.1667 17.5627 29.6057 18.61 30.3871 19.3822C31.1685 20.1544 32.2283 20.5882 33.3334 20.5882H45.6458C45.1515 23.4635 43.6448 26.0735 41.3917 27.9572C39.1387 29.8409 36.2845 30.8769 33.3334 30.8824C32.7808 30.8824 32.2509 31.0993 31.8602 31.4854C31.4695 31.8715 31.25 32.3951 31.25 32.9412C31.25 33.4872 31.4695 34.0109 31.8602 34.397C32.2509 34.7831 32.7808 35 33.3334 35C37.7521 34.9951 41.9884 33.2582 45.113 30.1705C48.2375 27.0827 49.995 22.8962 50 18.5294V4.11765C50 3.02558 49.561 1.97824 48.7796 1.20603C47.9982 0.433822 46.9384 0 45.8333 0Z" fill="#FFF2F6"/>
</svg>
